<svg width="36" height="35" viewBox="0 0 36 35" fill="none" xmlns="http://www.w3.org/2000/svg">
<path d="M17.942 0.00112136C8.03015 0.00112136 0 8.038 0 17.9431C0 25.8746 5.14037 32.5972 12.2645 34.9689C13.1649 35.1382 13.4901 34.5831 13.4901 34.1032C13.4901 33.6771 13.48 32.5501 13.4733 31.0542C8.47982 32.1352 7.42798 28.6421 7.42798 28.6421C6.61049 26.5743 5.43081 26.0192 5.43081 26.0192C3.80706 24.9102 5.55977 24.9337 5.55977 24.9337C7.35845 25.056 8.30489 26.7784 8.30489 26.7784C9.90509 29.5235 12.5033 28.7296 13.5316 28.2676C13.6886 27.1114 14.1562 26.3164 14.6653 25.8734C10.6822 25.4238 6.49387 23.8819 6.49387 17.0067C6.49387 15.0432 7.18912 13.4441 8.33853 12.1882C8.14005 11.7385 7.53226 9.9107 8.49664 7.43919C8.49664 7.43919 9.99816 6.96036 13.4307 9.27936C14.8672 8.88127 16.3922 8.68279 17.9162 8.6727C19.4412 8.68279 20.9652 8.8824 22.4017 9.27936C25.814 6.96036 27.3144 7.43919 27.3144 7.43919C28.2777 9.9107 27.6699 11.7374 27.4949 12.1882C28.6331 13.4441 29.3284 15.0443 29.3284 17.0067C29.3284 23.8976 25.1345 25.417 21.1469 25.8555C21.7703 26.3926 22.3546 27.4972 22.3546 29.1736C22.3546 31.5734 22.3321 33.5066 22.3321 34.0909C22.3321 34.5574 22.6461 35.118 23.5701 34.9375C30.7469 32.5905 35.8817 25.8622 35.8817 17.942C35.8817 8.03688 27.8515 0 17.9397 0L17.942 0.00112136Z" fill="#FAFAFA"/>
</svg>
